# xmcd
#
# Track frame offsets:
#	150
#	25100
#	45260
#	66245
#	86032
#	108815
#	131110
#	147040
#	162452
#	183470
#	200070
#	223175
#	247342
#	269635
#	290585
#
# Disc length: 4168 seconds
#
# Revision: 3
# Processed by: cddbd v1.5.1PL0 Copyright (c) Steve Scherf et al.
# Submitted via: EasyCDDAExtractor 7.0.6.1
#
DISCID=ef10460f
DTITLE=Anson Funderburgh And The Rockets Featuring Sam Myers - Live At The Gra
DTITLE=nd Emporium
DYEAR=1994
DGENRE=Blues
TTITLE0=Sidetracked
TTITLE1=Understood
TTITLE2=Ways Of Man
TTITLE3=It's You
TTITLE4=Turning My Life Around
TTITLE5=Peace Of Mind
TTITLE6=Empty Arms
TTITLE7=Wild Cherry
TTITLE8=Tell Me What I Want To Hear
TTITLE9=The Drifter
TTITLE10=Everything's Gonna Be Alright
TTITLE11=Shedding Tears Of Laughter
TTITLE12=Trying To Make You Mine
TTITLE13=Make A Little Love Tonight
TTITLE14=Backstroke
EXTD=
EXTT0=Instrumental\n
EXTT1=
EXTT2=
EXTT3=
EXTT4=
EXTT5=
EXTT6=
EXTT7=
EXTT8=
EXTT9=
EXTT10=
EXTT11=
EXTT12=
EXTT13=
EXTT14=
PLAYORDER=
